<?xml version="1.0" encoding="utf-8"?>
<!-- Generator: Adobe Illustrator 23.1.0, SVG Export Plug-In . SVG Version: 6.00 Build 0)  -->
<svg version="1.1" id="Layer_1" xmlns="http://www.w3.org/2000/svg" xmlns:xlink="http://www.w3.org/1999/xlink" x="0px" y="0px"
	 viewBox="0 0 253.3 63.6" style="enable-background:new 0 0 253.3 63.6;" xml:space="preserve">
<style type="text/css">
	.st0{fill:#F7B600;}
	.st1{fill:#1A1F71;}
	.st2{fill:#FF5F00;}
	.st3{fill:#EB001B;}
	.st4{display:none;fill:#F79E1B;}
	.st5{fill:#F79E1B;}
	.st6{display:none;}
	.st7{display:inline;}
	.st8{fill:#231F20;}
	.st9{fill:#006FCF;}
</style>
<g>
	<rect x="175.6" y="49.4" class="st0" width="70.7" height="6.3"/>
	<rect x="175.6" y="11.7" class="st1" width="70.7" height="6.3"/>
	<path class="st1" d="M203.9,25l-7.3,17.4h-4.8l-3.6-13.9c-0.2-0.9-0.4-1.2-1.1-1.5c-1.1-0.6-2.9-1.1-4.4-1.5l0.1-0.5h7.7
		c1,0,1.9,0.7,2.1,1.8l1.9,10.1l4.7-11.9H203.9z M222.6,36.7c0-4.6-6.4-4.9-6.3-6.9c0-0.6,0.6-1.3,1.9-1.5c0.6-0.1,2.4-0.2,4.4,0.8
		l0.8-3.7c-1.1-0.4-2.5-0.8-4.2-0.8c-4.5,0-7.6,2.4-7.6,5.8c0,2.5,2.2,3.9,3.9,4.7c1.8,0.9,2.3,1.4,2.3,2.2c0,1.2-1.4,1.7-2.7,1.7
		c-2.3,0-3.6-0.6-4.6-1.1l-0.8,3.8c1.1,0.5,3,0.9,5,0.9C219.5,42.7,222.6,40.4,222.6,36.7 M234.4,42.4h4.2L234.9,25h-3.8
		c-0.9,0-1.6,0.5-1.9,1.3l-6.8,16.2h4.7l0.9-2.6h5.8L234.4,42.4z M229.4,36.2l2.4-6.5l1.4,6.5H229.4z M210.4,25l-3.7,17.4h-4.5
		l3.7-17.4H210.4z"/>
</g>
<g id="Layer_2">
	<g>
		<title>Asset 1</title>
		<rect x="106.2" y="16.4" class="st2" width="21.2" height="34.6"/>
		<path class="st3" d="M108.4,33.7c0-6.8,3.1-13.1,8.4-17.3c-9.6-7.5-23.4-5.9-30.9,3.7C78.4,29.6,80,43.5,89.6,51
			c8,6.3,19.2,6.3,27.2,0C111.5,46.8,108.4,40.4,108.4,33.7z"/>
		<path class="st4" d="M150.3,47.3v-0.7h0.3v-0.1h-0.7v0.1h0.3v0.7H150.3z M151.7,47.3v-0.9h-0.2l-0.3,0.6l-0.3-0.6h-0.2v0.9h0.2
			v-0.6l0.2,0.6h0.2l0.2-0.6v0.6L151.7,47.3z"/>
		<path class="st5" d="M152.4,33.7c0,12.2-9.9,22-22,22c-4.9,0-9.7-1.7-13.6-4.7c9.6-7.5,11.2-21.4,3.7-30.9
			c-1.1-1.4-2.3-2.6-3.7-3.7c9.6-7.5,23.4-5.9,30.9,3.7C150.8,24,152.4,28.7,152.4,33.7L152.4,33.7z"/>
	</g>
</g>
<g id="Layer_2_1_" class="st6">
	<g id="Layer_1-2" class="st7">
		<path class="st8" d="M269.6,53.5v-2.9c0.1-0.9-0.6-1.8-1.6-1.8c-0.1,0-0.1,0-0.2,0c-0.6,0-1.3,0.3-1.6,0.8
			c-0.3-0.5-0.9-0.8-1.5-0.8c-0.5,0-1,0.2-1.3,0.7v-0.6h-1v4.6h1V51c-0.1-0.6,0.3-1.1,0.9-1.2c0.1,0,0.1,0,0.2,0c0.7,0,1,0.4,1,1.2
			v2.6h1V51c-0.1-0.6,0.3-1.1,0.9-1.2c0.1,0,0.1,0,0.2,0c0.7,0,1,0.4,1,1.2v2.6L269.6,53.5z M284.6,48.9h-1.6v-1.4h-1v1.4H281v0.9
			h0.9v2.1c0,1.1,0.4,1.7,1.6,1.7c0.4,0,0.9-0.1,1.2-0.4l-0.3-0.9c-0.3,0.2-0.6,0.2-0.9,0.3c-0.5,0-0.7-0.3-0.7-0.8v-2.1h1.6
			L284.6,48.9z M293.1,48.8c-0.5,0-1,0.2-1.2,0.7v-0.6h-1v4.6h1v-2.6c0-0.8,0.3-1.2,1-1.2c0.2,0,0.4,0,0.6,0.1l0.3-1
			C293.5,48.8,293.3,48.8,293.1,48.8L293.1,48.8z M280.2,49.3c-0.6-0.3-1.2-0.5-1.9-0.5c-1.2,0-1.9,0.6-1.9,1.5
			c0,0.7,0.6,1.2,1.6,1.4l0.5,0.1c0.5,0.1,0.8,0.2,0.8,0.5c0,0.4-0.4,0.6-1,0.6c-0.5,0-1.1-0.2-1.5-0.5l-0.5,0.8
			c0.6,0.4,1.3,0.6,2,0.6c1.3,0,2.1-0.6,2.1-1.5s-0.6-1.2-1.6-1.4l-0.5-0.1c-0.4-0.1-0.8-0.1-0.8-0.5c0-0.3,0.3-0.5,0.9-0.5
			c0.5,0,1,0.1,1.4,0.4L280.2,49.3z M307,48.8c-0.5,0-1,0.2-1.2,0.7v-0.6h-1v4.6h1v-2.6c0-0.8,0.3-1.2,1-1.2c0.2,0,0.4,0,0.6,0.1
			l0.3-1C307.4,48.8,307.2,48.8,307,48.8L307,48.8z M294.1,51.2c0,1.3,1,2.4,2.2,2.4c0.1,0,0.1,0,0.2,0c0.6,0,1.2-0.2,1.7-0.5
			l-0.5-0.8c-0.3,0.3-0.8,0.4-1.2,0.4c-0.8-0.1-1.4-0.8-1.4-1.6c0.1-0.7,0.6-1.3,1.4-1.4c0.4,0,0.9,0.1,1.2,0.4l0.5-0.8
			c-0.5-0.4-1.1-0.6-1.7-0.5c-1.3-0.1-2.4,0.9-2.4,2.2C294.1,51,294.1,51.1,294.1,51.2L294.1,51.2z M303.4,51.2v-2.3h-1v0.6
			c-0.3-0.4-0.9-0.7-1.4-0.7c-1.3,0-2.4,1.1-2.4,2.4s1.1,2.4,2.4,2.4c0.6,0,1.1-0.2,1.4-0.7v0.6h1V51.2z M299.7,51.2
			c0-0.8,0.7-1.3,1.5-1.3c0.8,0,1.3,0.7,1.3,1.5c0,0.7-0.6,1.3-1.4,1.3c-0.8,0-1.4-0.6-1.4-1.4C299.7,51.3,299.7,51.2,299.7,51.2z
			 M287.7,48.8c-1.3,0-2.4,1.1-2.4,2.4c0,1.3,1.1,2.4,2.4,2.4l0,0c0.7,0,1.4-0.2,1.9-0.6l-0.5-0.7c-0.4,0.3-0.8,0.5-1.3,0.5
			c-0.7,0.1-1.3-0.4-1.4-1.1h3.4c0-0.1,0-0.2,0-0.4C289.9,49.8,289,48.8,287.7,48.8L287.7,48.8z M287.7,49.7c0.6,0,1.1,0.5,1.2,1.1
			c0,0,0,0,0,0h-2.4C286.5,50.2,287,49.7,287.7,49.7L287.7,49.7z M312.7,51.2v-4.1h-1v2.4c-0.3-0.4-0.9-0.7-1.4-0.7
			c-1.3,0-2.4,1.1-2.4,2.4s1.1,2.4,2.4,2.4c0.6,0,1.1-0.2,1.4-0.7v0.6h1V51.2z M314.4,52.8c0.1,0,0.1,0,0.2,0c0.1,0,0.1,0.1,0.1,0.1
			c0,0,0.1,0.1,0.1,0.1c0,0.1,0,0.2,0,0.4c0,0.1-0.1,0.1-0.1,0.1c0,0-0.1,0.1-0.1,0.1c-0.1,0-0.1,0-0.2,0c-0.2,0-0.4-0.1-0.4-0.3
			c0-0.1,0-0.2,0-0.4c0-0.1,0.1-0.1,0.1-0.1c0,0,0.1-0.1,0.1-0.1C314.2,52.8,314.3,52.8,314.4,52.8L314.4,52.8z M314.4,53.6
			c0,0,0.1,0,0.1,0c0,0,0.1,0,0.1-0.1c0.1-0.1,0.1-0.3,0-0.5c0,0-0.1-0.1-0.1-0.1c0,0-0.1,0-0.1,0c0,0-0.1,0-0.1,0
			c0,0-0.1,0-0.1,0.1c-0.1,0.1-0.1,0.3,0,0.5c0,0,0.1,0.1,0.1,0.1C314.3,53.6,314.3,53.7,314.4,53.6L314.4,53.6z M314.4,53.1
			c0,0,0.1,0,0.1,0c0,0,0,0.1,0,0.1c0,0,0,0.1,0,0.1c0,0-0.1,0-0.1,0l0.1,0.2h-0.1l-0.1-0.2h0v0.2h-0.1v-0.4L314.4,53.1z
			 M314.3,53.2v0.1h0.1c0,0,0,0,0.1,0c0,0,0,0,0,0c0,0,0,0,0,0c0,0,0,0-0.1,0L314.3,53.2z M309,51.2c0-0.8,0.7-1.3,1.5-1.3
			c0.8,0,1.3,0.7,1.3,1.5c0,0.7-0.6,1.3-1.4,1.3c-0.8,0-1.4-0.6-1.4-1.4C309,51.3,309,51.2,309,51.2z M275.3,51.2v-2.3h-1v0.6
			c-0.3-0.4-0.9-0.7-1.4-0.7c-1.3,0-2.4,1.1-2.4,2.4s1.1,2.4,2.4,2.4c0.6,0,1.1-0.2,1.4-0.7v0.6h1V51.2z M271.6,51.2
			c0-0.8,0.7-1.3,1.5-1.3c0.8,0,1.3,0.7,1.3,1.5c0,0.7-0.6,1.3-1.4,1.3c-0.8,0-1.4-0.6-1.4-1.4C271.5,51.3,271.5,51.2,271.6,51.2
			L271.6,51.2z"/>
		<g id="_Group_">
			<rect x="279.9" y="13.9" class="st2" width="15.1" height="27.2"/>
			<path id="_Path_" class="st3" d="M280.8,27.5c0-5.3,2.4-10.3,6.6-13.6c-7.5-5.9-18.4-4.6-24.3,2.9c-5.9,7.5-4.6,18.4,2.9,24.3
				c6.3,4.9,15.1,4.9,21.4,0C283.3,37.8,280.8,32.8,280.8,27.5z"/>
			<path class="st5" d="M315.4,27.5c0,9.6-7.7,17.3-17.3,17.3c-3.9,0-7.6-1.3-10.7-3.7c7.5-5.9,8.8-16.8,2.9-24.3
				c-0.9-1.1-1.8-2.1-2.9-2.9c7.5-5.9,18.4-4.6,24.3,2.9C314.1,19.9,315.4,23.6,315.4,27.5L315.4,27.5z"/>
			<path class="st5" d="M313.8,38.2v-0.6h0.2v-0.1h-0.6v0.1h0.2v0.6H313.8z M314.9,38.2v-0.7h-0.2l-0.2,0.5l-0.2-0.5h-0.2v0.7h0.1
				v-0.5l0.2,0.4h0.1l0.2-0.4v0.5L314.9,38.2z"/>
		</g>
	</g>
</g>
<g id="Layer_3">
	<g>
		<g>
			<path class="st9" d="M55.8,43.2H39.6l-1-1.3v1.3h-3.5V41c-0.4,0.2-0.9,0.2-1.5,0.2H33v1.9h-5.2L27,42.1l-0.7,1.1h-8.5V35h8.5
				l0.8,1.1l0.7-1.1h29.9V8.3H8.4v20l1.7-4h3.4l0.9,2.1v-2.1h4.1l0.6,1.7l0.6-1.7h18.1v0.7c0.7-0.5,1.6-0.7,2.5-0.7h5.6l0.9,2.1
				v-2.1h3.4l1,1.5v-1.5h3.6v8.2h-3.6l-0.9-1.4v1.4h-5.1l-0.5-1.2h-1.1l-0.5,1.2h-3c-0.8,0-1.7-0.2-2.4-0.7v0.7h-5.1l-1-1.3v1.3H13
				l-0.5-1.2h-1.1L11,32.6H8.6v25.1H58v-15C57.2,43,56.5,43.2,55.8,43.2L55.8,43.2L55.8,43.2z"/>
			<g>
				<path class="st9" d="M23.7,37.5v-1.3H19V42h4.7v-1.3h-3.2v-1h3.1v-1.2h-3.1v-0.9L23.7,37.5L23.7,37.5L23.7,37.5z M28.4,42h1.8
					l-2.3-2.9l2.3-2.9h-1.8L27,38l-1.4-1.8h-1.8l2.3,2.9L23.7,42h1.8l1.4-1.8L28.4,42L28.4,42L28.4,42z M30.4,36.2V42h1.5v-1.9h1.7
					c1.2,0,2.1-0.8,2.1-2s-0.7-2-2-2L30.4,36.2L30.4,36.2L30.4,36.2z M34.2,38.2c0,0.3-0.2,0.7-0.7,0.7h-1.7v-1.3h1.7
					C33.9,37.5,34.2,37.8,34.2,38.2 M37.7,39.9h0.6l1.7,2.1h1.8L40,39.8c1-0.2,1.5-0.9,1.5-1.8c0-1.1-0.7-1.9-2-1.9h-3.2v5.8h1.5
					L37.7,39.9L37.7,39.9L37.7,39.9z M39.4,37.5c0.4,0,0.7,0.2,0.7,0.6c0,0.3-0.2,0.6-0.7,0.6h-1.6v-1.2H39.4L39.4,37.5L39.4,37.5z
					 M46.8,37.5v-1.3h-4.7V42h4.7v-1.3h-3.2v-1h3.1v-1.2h-3.1v-0.9L46.8,37.5L46.8,37.5L46.8,37.5z M50.5,40.7h-3V42h3
					c1.2,0,2-0.7,2-1.9c0-1.1-0.7-1.7-1.8-1.7h-1.4c-0.3,0-0.5-0.2-0.5-0.5c0-0.3,0.2-0.5,0.5-0.5h2.5l0.6-1.3h-3.1
					c-1.2,0-2,0.7-2,1.8c0,1.1,0.7,1.7,1.8,1.7h1.4c0.3,0,0.5,0.2,0.5,0.5C51.1,40.5,50.8,40.7,50.5,40.7 M55.8,40.7h-3V42h3
					c1.2,0,2-0.7,2-1.9c0-1.1-0.7-1.7-1.8-1.7h-1.4c-0.3,0-0.5-0.2-0.5-0.5c0-0.3,0.2-0.5,0.5-0.5H57l0.6-1.3h-3.1
					c-1.2,0-2,0.7-2,1.8c0,1.1,0.7,1.7,1.8,1.7h1.4c0.3,0,0.5,0.2,0.5,0.5C56.4,40.5,56.1,40.7,55.8,40.7"/>
				<path class="st9" d="M13.6,31.4h1.7l-2.5-5.8h-1.9l-2.5,5.8h1.7l0.5-1.2h2.7L13.6,31.4L13.6,31.4L13.6,31.4z M11,28.9l0.8-2
					l0.8,2H11L11,28.9L11,28.9z M18.4,31.4h1.3l1.6-4.3v4.3h1.5v-5.8h-2.3l-1.3,3.7l-1.3-3.7h-2.3v5.8H17v-4.3L18.4,31.4L18.4,31.4
					L18.4,31.4z M28.4,26.8v-1.3h-4.7v5.8h4.7V30h-3.2v-1h3.1v-1.2h-3.1v-0.9L28.4,26.8L28.4,26.8L28.4,26.8z M30.7,29.3h0.6
					l1.7,2.1h1.8l-1.9-2.2c1-0.2,1.5-0.9,1.5-1.8c0-1.1-0.7-1.9-2-1.9h-3.2v5.8h1.5V29.3L30.7,29.3L30.7,29.3z M32.4,26.8
					c0.4,0,0.7,0.2,0.7,0.6S32.8,28,32.4,28h-1.6v-1.2H32.4L32.4,26.8L32.4,26.8z M35.1,31.4h1.5v-2.9v-2.9h-1.5v2.9V31.4L35.1,31.4
					L35.1,31.4z M40,31.4L40,31.4l0.7-1.3h-0.5c-0.9,0-1.5-0.6-1.5-1.6v-0.1c0-0.9,0.5-1.5,1.5-1.5h1.6v-1.3h-1.7
					c-1.8,0-2.8,1.2-2.8,2.9v0.1C37.2,30.3,38.3,31.4,40,31.4 M45.9,31.4h1.7l-2.5-5.8h-1.9l-2.5,5.8h1.7l0.5-1.2h2.7L45.9,31.4
					L45.9,31.4L45.9,31.4z M43.4,28.9l0.8-2l0.8,2H43.4L43.4,28.9L43.4,28.9z M51.7,31.4h1.8v-5.8H52v3.6l-2.3-3.6h-1.9v5.8h1.5
					v-3.7L51.7,31.4L51.7,31.4L51.7,31.4z"/>
			</g>
		</g>
	</g>
</g>
</svg>
